<svg xmlns="http://www.w3.org/2000/svg" viewBox="0 0 64 64" fill="none">
  <rect width="64" height="64" rx="14" fill="#f6efe4"/>
  <path d="M24 16c2.6 2.8-2.6 5 0 7.8" stroke="#d97757" stroke-width="2" stroke-linecap="round" opacity="0.55"/>
  <path d="M32 13c2.6 2.8-2.6 5 0 7.8" stroke="#d97757" stroke-width="2" stroke-linecap="round" opacity="0.7"/>
  <path d="M40 16c2.6 2.8-2.6 5 0 7.8" stroke="#d97757" stroke-width="2" stroke-linecap="round" opacity="0.55"/>
  <path d="M18 33c1.8-2.4 6.2-3.8 14-3.8s12.2 1.4 14 3.8c-1.8 2-6.2 3-14 3s-12.2-1-14-3z" fill="#fff7ec"/>
  <ellipse cx="32" cy="33" rx="14" ry="2.2" fill="#f0d9b8" opacity="0.7"/>
  <path d="M14 34c0 8.5 7 15 16 16.5h4C43 49 50 42.5 50 34z" fill="#d97757"/>
  <path d="M14 34h36" stroke="#b85d3f" stroke-width="1.2" opacity="0.5"/>
  <circle cx="26" cy="32" r="0.9" fill="#c97a3d" opacity="0.6"/>
  <circle cx="32" cy="31.5" r="0.9" fill="#c97a3d" opacity="0.6"/>
  <circle cx="38" cy="32" r="0.9" fill="#c97a3d" opacity="0.6"/>
</svg>
